<svg xmlns="http://www.w3.org/2000/svg" width="362" height="322" viewBox="0 0 362 322" fill="none">
  <path d="M287.482 70.6593C281.719 59.1754 273.207 49.3069 262.545 41.8257C249.371 32.5816 233.869 27.6964 217.714 27.6964C208.87 27.6964 200.298 29.1334 192.116 31.9784C184.874 22.0689 175.388 14.0069 164.431 8.44964C153.474 2.8924 141.356 -0.00281136 129.064 2.04847e-06C86.8743 2.04847e-06 52.3981 33.5812 51.0802 75.3624C37.8417 80.2413 26.0004 88.7094 17.1031 99.7891C6.07411 113.524 0 130.798 0 148.429C0 191.356 35.0009 226.278 78.0237 226.278H124.69C128.017 241.585 128.193 254.364 128.295 262.595V289.54C128.295 307.438 142.889 322 160.828 322H180.103C198.042 322 212.637 307.438 212.637 289.54V274.491L251.375 264.135C257.41 262.521 260.991 256.332 259.374 250.311C257.757 244.288 251.554 240.717 245.519 242.329L212.971 251.03C213.35 244.03 214.209 235.628 216.241 226.278H283.978C326.999 226.277 362 191.355 362 148.429C362 106.674 328.885 72.4927 287.482 70.6593ZM190.888 242.897H150.042C148.59 226.974 144.582 205.67 133.115 182.744H207.815C196.348 205.67 192.34 226.974 190.888 242.897ZM180.102 299.426H160.826C155.363 299.426 150.919 294.991 150.919 289.54V265.471H190.01V289.54C190.01 294.991 185.566 299.426 180.102 299.426ZM283.976 203.703H223.147C226.502 195.329 230.94 186.573 236.822 177.667C237.945 175.966 238.586 173.992 238.677 171.956C238.767 169.921 238.303 167.899 237.335 166.105C236.366 164.311 234.929 162.812 233.176 161.767C231.422 160.722 229.418 160.17 227.376 160.17H113.554C111.512 160.17 109.507 160.721 107.753 161.766C105.999 162.81 104.562 164.309 103.593 166.103C102.624 167.898 102.161 169.92 102.251 171.956C102.342 173.992 102.983 175.966 104.108 177.667C109.988 186.573 114.427 195.329 117.782 203.703H78.0237C47.4764 203.703 22.625 178.907 22.625 148.429C22.625 122.679 40.1382 100.56 65.213 94.6415C67.8553 94.0178 70.1846 92.4667 71.7756 90.2715C73.3666 88.0762 74.1132 85.3832 73.8791 82.6842C73.7384 81.0761 73.6671 79.4627 73.6656 77.8484C73.6656 47.3705 98.517 22.5742 129.064 22.5742C149.384 22.5742 168.046 33.6503 177.767 51.4804C180.687 56.8375 187.346 58.9108 192.8 56.1638C200.567 52.2535 208.949 50.2706 217.714 50.2706C240.607 50.2706 261.434 64.6207 269.539 85.9787C271.289 90.5859 275.84 93.5099 280.76 93.2511C281.831 93.1889 282.904 93.1571 283.977 93.1558C314.524 93.1558 339.376 117.951 339.376 148.43C339.376 178.909 314.524 203.703 283.976 203.703ZM226.034 119.215L215.641 137.176C213.546 140.797 209.743 142.822 205.833 142.822C203.914 142.822 201.969 142.334 200.187 141.308C194.777 138.191 192.923 131.288 196.047 125.89L206.44 107.928C209.564 102.531 216.483 100.681 221.893 103.797C227.303 106.914 229.158 113.816 226.034 119.215ZM181.777 101.335V122.073C181.777 128.307 176.712 133.36 170.465 133.36C164.217 133.36 159.152 128.307 159.152 122.073V101.335C159.152 95.1007 164.217 90.0476 170.465 90.0476C176.712 90.0476 181.777 95.1007 181.777 101.335ZM144.882 125.889C148.006 131.287 146.152 138.191 140.742 141.307C139.026 142.299 137.079 142.821 135.096 142.821C131.186 142.821 127.384 140.796 125.288 137.175L114.895 119.214C111.771 113.816 113.625 106.913 119.035 103.796C124.445 100.679 131.364 102.529 134.488 107.927L144.882 125.889Z" fill="#E7E8E9"/>
</svg>