<svg xmlns="http://www.w3.org/2000/svg" width="66" height="61" viewBox="0 0 66 61" fill="none">
  <path d="M34.7421 15.1683L34.7664 15.1388C35.2586 15.161 35.7018 14.8222 35.8376 14.334C36.9209 10.4561 40.3254 7.76979 44.0911 7.76979C44.7051 7.76979 45.1626 7.24665 45.1626 6.65303C45.1626 6.05938 44.7051 5.53626 44.0911 5.53626C39.189 5.53626 35.0925 9.01171 33.7803 13.7097C33.6209 14.2796 33.9189 14.9067 34.4965 15.0903L34.7421 15.1683Z" fill="#339AF0" stroke="#F9FFF9" stroke-width="0.759759"/>
  <path d="M53.745 42.7277H49.5961C49.2143 42.7277 48.9046 42.3977 48.9046 41.9909C48.9046 41.5842 49.2143 41.2542 49.5961 41.2542H53.745C59.464 41.2542 64.1173 36.2966 64.1173 30.2035C64.1173 24.1103 59.464 19.1527 53.745 19.1527H53.6452C53.4447 19.1527 53.254 19.0601 53.1226 18.8985C52.9913 18.737 52.932 18.5228 52.9606 18.3113C53.0224 17.8524 53.0535 17.3914 53.0535 16.9426C53.0535 11.6619 49.0206 7.36517 44.0641 7.36517C42.1358 7.36517 40.297 8.00717 38.746 9.22221C38.4052 9.48901 37.9212 9.37061 37.7241 8.9712C33.3317 0.0601062 21.8592 -1.13656 15.9113 6.61531C13.4057 9.88106 12.4212 14.1293 13.2101 18.2697C13.297 18.727 12.9686 19.1533 12.5324 19.1533H12.2553C6.53629 19.1533 1.88304 24.1109 1.88304 30.204C1.88304 36.2972 6.53629 41.2548 12.2553 41.2548H16.4042C16.786 41.2548 17.0957 41.5847 17.0957 41.9915C17.0957 42.3983 16.786 42.7282 16.4042 42.7282H12.2553C5.77359 42.7282 0.5 37.1097 0.5 30.204C0.5 23.492 5.48163 17.996 11.7125 17.6929C11.1272 13.3973 12.2464 9.06431 14.8405 5.68284C21.2086 -2.61732 33.4125 -1.68698 38.5714 7.56831C40.2172 6.46901 42.1005 5.89232 44.0639 5.89232C50.0689 5.89232 54.8274 11.3378 54.411 17.6998C60.5845 18.0687 65.5 23.5356 65.5 30.2034C65.5 37.1097 60.2264 42.7277 53.7447 42.7277L53.745 42.7277Z" fill="#339AF0"/>
  <path d="M15.2627 41.5777C15.2627 51.9226 23.1674 60.3798 32.9338 60.3798C42.7004 60.3798 50.6049 51.9225 50.6049 41.5777C50.6049 31.2329 42.7004 22.7756 32.9338 22.7756C23.1672 22.7756 15.2627 31.233 15.2627 41.5777ZM17.4061 41.5777C17.4061 32.4195 24.3945 25.0095 32.9338 25.0095C41.473 25.0095 48.4615 32.4193 48.4615 41.5777C48.4615 50.736 41.473 58.146 32.9338 58.146C24.3946 58.146 17.4061 50.7362 17.4061 41.5777Z" fill="#339AF0" stroke="#F9FFF9" stroke-width="0.759759"/>
  <path d="M32.335 48.9973C32.335 49.482 32.7095 49.9167 33.2212 49.9167C33.7327 49.9167 34.1074 49.4825 34.1074 48.9973V34.9707C34.1074 34.4861 33.7329 34.0513 33.2212 34.0513C32.7095 34.0513 32.335 34.4861 32.335 34.9707V48.9973Z" fill="#339AF0" stroke="#339AF0" stroke-width="0.759759"/>
  <path d="M33.1843 36.2925L29.7687 39.9315C29.7687 39.9315 29.7686 39.9315 29.7686 39.9315L29.7684 39.9317L33.1843 36.2925ZM33.1843 36.2925L36.6001 39.9317C36.7709 40.1137 37.0011 40.2096 37.2351 40.2096L33.1843 36.2925ZM32.549 34.3331C32.8968 33.9621 33.4716 33.9625 33.8193 34.333L37.8701 38.6488C38.2052 39.0057 38.2052 39.5748 37.8701 39.9317C37.6988 40.1147 37.4683 40.2096 37.2351 40.2096L32.549 34.3331ZM32.549 34.3331C32.549 34.3332 32.549 34.3332 32.549 34.3332L32.549 34.3331Z" fill="#339AF0" stroke="#339AF0" stroke-width="0.759759"/>
</svg>