<svg xmlns="http://www.w3.org/2000/svg" width="39" height="38" viewBox="0 0 39 38" fill="none">
  <rect x="0.5" width="38" height="38" rx="19" fill="black"/>
  <path d="M23.7229 16.375C25.2298 17.456 27.0759 18.0921 29.0697 18.0921V14.2417C28.6924 14.2418 28.316 14.2023 27.9468 14.1238V17.1546C25.9532 17.1546 24.1074 16.5186 22.6001 15.4376V23.2951C22.6001 27.2258 19.4249 30.412 15.5084 30.412C14.0471 30.412 12.6888 29.9687 11.5605 29.2083C12.8483 30.5297 14.6442 31.3494 16.6311 31.3494C20.5478 31.3494 23.7231 28.1632 23.7231 24.2323V16.375H23.7229ZM25.1081 12.4905C24.338 11.6461 23.8323 10.555 23.7229 9.34863V8.85339H22.6589C22.9267 10.3866 23.8403 11.6966 25.1081 12.4905ZM14.0377 26.192C13.6075 25.6258 13.3749 24.9332 13.376 24.2211C13.376 22.4233 14.8283 20.9657 16.62 20.9657C16.9539 20.9656 17.2858 21.0169 17.6041 21.1182V17.1818C17.2322 17.1307 16.8568 17.1089 16.4817 17.1169V20.1808C16.1632 20.0795 15.8311 20.028 15.4972 20.0283C13.7054 20.0283 12.2532 21.4858 12.2532 23.2838C12.2532 24.5551 12.9791 25.6558 14.0377 26.192Z" fill="#FF004F"/>
  <path d="M22.5998 15.4375C24.1071 16.5185 25.9529 17.1545 27.9466 17.1545V14.1238C26.8337 13.8859 25.8485 13.3023 25.1078 12.4905C23.8399 11.6965 22.9264 10.3866 22.6586 8.85339H19.8636V24.2322C19.8573 26.025 18.4075 27.4767 16.6196 27.4767C15.566 27.4767 14.63 26.9727 14.0372 26.192C12.9787 25.6558 12.2528 24.5551 12.2528 23.2839C12.2528 21.4861 13.705 20.0284 15.4967 20.0284C15.84 20.0284 16.1709 20.0821 16.4812 20.1809V17.117C12.6335 17.1968 9.53906 20.3519 9.53906 24.2322C9.53906 26.1693 10.3097 27.9253 11.5603 29.2084C12.6886 29.9687 14.0469 30.4121 15.5082 30.4121C19.4248 30.4121 22.5999 27.2257 22.5999 23.2951V15.4375H22.5998Z" fill="white"/>
  <path d="M27.9463 14.1238V13.3043C26.9428 13.3058 25.959 13.0238 25.1075 12.4904C25.8612 13.3185 26.8537 13.8895 27.9463 14.1238ZM22.6583 8.85339C22.6328 8.70687 22.6131 8.55937 22.5995 8.41132V7.91608H18.7404V23.295C18.7342 25.0876 17.2845 26.5393 15.4964 26.5393C14.9715 26.5393 14.4759 26.4143 14.0369 26.192C14.6297 26.9727 15.5657 27.4766 16.6193 27.4766C18.407 27.4766 19.8571 26.0251 19.8633 24.2322V8.85339H22.6583ZM16.4811 17.117V16.2446C16.1587 16.2003 15.8336 16.1781 15.5081 16.1783C11.5912 16.1782 8.41602 19.3646 8.41602 23.295C8.41602 25.7591 9.6639 27.9308 11.5602 29.2082C10.3095 27.9252 9.53887 26.1691 9.53887 24.2322C9.53887 20.3519 12.6333 17.1968 16.4811 17.117Z" fill="#00F2EA"/>
</svg>