<svg xmlns="http://www.w3.org/2000/svg" width="39" height="38" viewBox="0 0 39 38" fill="none">
  <g clip-path="url(#clip0_946_6222)">
    <path d="M34.595 10.9679C34.6105 11.3199 34.6105 11.6559 34.6105 12.0079C34.6259 22.68 26.7851 35 12.4464 35C8.2173 35 4.06539 33.736 0.5 31.368C1.11738 31.448 1.73477 31.48 2.35215 31.48C5.85581 31.48 9.26686 30.264 12.0297 28.008C8.69578 27.944 5.7632 25.688 4.74452 22.392C5.91755 22.632 7.12145 22.584 8.26361 22.248C4.63647 21.512 2.02803 18.1999 2.01259 14.3439C2.01259 14.3119 2.01259 14.2799 2.01259 14.2479C3.09301 14.8719 4.31235 15.2239 5.54712 15.2559C2.13607 12.8879 1.07108 8.16791 3.13932 4.4719C7.10601 9.52792 12.9403 12.5839 19.2067 12.9199C18.5739 10.1199 19.4383 7.17591 21.4602 5.1919C24.5934 2.13589 29.5325 2.2959 32.4959 5.54391C34.2401 5.1919 35.9224 4.5199 37.4504 3.5759C36.8639 5.44791 35.6446 7.03191 34.024 8.03991C35.5674 7.84791 37.08 7.41591 38.5 6.77591C37.4504 8.40792 36.1231 9.81592 34.595 10.9679Z" fill="#1D9BF0"/>
  </g>
  <defs>
    <clipPath id="clip0_946_6222">
      <rect x="0.5" width="38" height="38" rx="5" fill="white"/>
    </clipPath>
  </defs>
</svg>