<svg
              xmlns="http://www.w3.org/2000/svg"
              width="25"
              height="24"
              viewBox="0 0 25 24"
              fill="none"
            >
              <path
                d="M18.3951 2C20.6011 2 22.3951 3.794 22.3951 6V18C22.3951 20.206 20.6011 22 18.3951 22H6.39508C4.18908 22 2.39508 20.206 2.39508 18V6C2.39508 3.794 4.18908 2 6.39508 2H18.3951ZM18.3951 0H6.39508C4.80378 0 3.27766 0.632141 2.15244 1.75736C1.02722 2.88258 0.395081 4.4087 0.395081 6L0.395081 18C0.395081 19.5913 1.02722 21.1174 2.15244 22.2426C3.27766 23.3679 4.80378 24 6.39508 24H18.3951C19.9864 24 21.5125 23.3679 22.6377 22.2426C23.7629 21.1174 24.3951 19.5913 24.3951 18V6C24.3951 4.4087 23.7629 2.88258 22.6377 1.75736C21.5125 0.632141 19.9864 0 18.3951 0Z"
                fill="#6F757E"
              />
              <path
                d="M12.3951 18C12.1299 18 11.8755 17.8946 11.688 17.7071C11.5004 17.5196 11.3951 17.2652 11.3951 17V7C11.3951 6.73478 11.5004 6.48043 11.688 6.29289C11.8755 6.10536 12.1299 6 12.3951 6C12.6603 6 12.9147 6.10536 13.1022 6.29289C13.2897 6.48043 13.3951 6.73478 13.3951 7V17C13.3951 17.2652 13.2897 17.5196 13.1022 17.7071C12.9147 17.8946 12.6603 18 12.3951 18Z"
                fill="#6F757E"
              />
              <path
                d="M6.39508 12C6.39508 11.7348 6.50044 11.4804 6.68797 11.2929C6.87551 11.1054 7.12986 11 7.39508 11H17.3951C17.6603 11 17.9147 11.1054 18.1022 11.2929C18.2897 11.4804 18.3951 11.7348 18.3951 12C18.3951 12.2652 18.2897 12.5196 18.1022 12.7071C17.9147 12.8946 17.6603 13 17.3951 13H7.39508C7.12986 13 6.87551 12.8946 6.68797 12.7071C6.50044 12.5196 6.39508 12.2652 6.39508 12Z"
                fill="#6F757E"
              />
            </svg>