 <svg
              xmlns="http://www.w3.org/2000/svg"
              width="25"
              height="24"
              viewBox="0 0 25 24"
              fill="none"
            >
              <path
                d="M20.209 8.37209C17.8983 8.37209 16.023 6.49674 16.023 4.18605C16.023 1.87535 17.8983 0 20.209 0C22.5197 0 24.3951 1.87535 24.3951 4.18605C24.3951 6.49674 22.5197 8.37209 20.209 8.37209ZM20.209 1.67442C18.8249 1.67442 17.6974 2.80186 17.6974 4.18605C17.6974 5.57023 18.8249 6.69767 20.209 6.69767C21.5932 6.69767 22.7207 5.57023 22.7207 4.18605C22.7207 2.80186 21.5932 1.67442 20.209 1.67442ZM12.3951 13.9535H6.81369C6.35601 13.9535 5.97648 13.574 5.97648 13.1163C5.97648 12.6586 6.35601 12.2791 6.81369 12.2791H12.3951C12.8528 12.2791 13.2323 12.6586 13.2323 13.1163C13.2323 13.574 12.8528 13.9535 12.3951 13.9535ZM16.8602 18.4186H6.81369C6.35601 18.4186 5.97648 18.0391 5.97648 17.5814C5.97648 17.1237 6.35601 16.7442 6.81369 16.7442H16.8602C17.3179 16.7442 17.6974 17.1237 17.6974 17.5814C17.6974 18.0391 17.3179 18.4186 16.8602 18.4186Z"
                fill="#6F757E"
              />
              <path
                d="M15.7439 24H9.04624C2.98485 24 0.395081 21.4102 0.395081 15.3488V8.65116C0.395081 2.58977 2.98485 0 9.04624 0H14.6276C15.0853 0 15.4648 0.379535 15.4648 0.837209C15.4648 1.29488 15.0853 1.67442 14.6276 1.67442H9.04624C3.9002 1.67442 2.0695 3.50512 2.0695 8.65116V15.3488C2.0695 20.4949 3.9002 22.3256 9.04624 22.3256H15.7439C20.89 22.3256 22.7207 20.4949 22.7207 15.3488V9.76744C22.7207 9.30977 23.1002 8.93023 23.5579 8.93023C24.0155 8.93023 24.3951 9.30977 24.3951 9.76744V15.3488C24.3951 21.4102 21.8053 24 15.7439 24Z"
                fill="#6F757E"
              />
            </svg>