<svg
              xmlns="http://www.w3.org/2000/svg"
              width="21"
              height="20"
              viewBox="0 0 21 20"
              fill="none"
            >
              <g clip-path="url(#clip0_630_348)">
                <path
                  d="M15.4606 0H4.83563C2.2468 0 0.148132 2.09867 0.148132 4.6875V15.3125C0.148132 17.9013 2.2468 20 4.83563 20H15.4606C18.0495 20 20.1481 17.9013 20.1481 15.3125V4.6875C20.1481 2.09867 18.0495 0 15.4606 0Z"
                  fill="url(#paint0_radial_630_348)"
                />
                <path
                  d="M15.4606 0H4.83563C2.2468 0 0.148132 2.09867 0.148132 4.6875V15.3125C0.148132 17.9013 2.2468 20 4.83563 20H15.4606C18.0495 20 20.1481 17.9013 20.1481 15.3125V4.6875C20.1481 2.09867 18.0495 0 15.4606 0Z"
                  fill="url(#paint1_radial_630_348)"
                />
                <path
                  d="M10.1488 2.1875C8.02712 2.1875 7.76079 2.1968 6.92751 2.23469C6.09579 2.27281 5.52805 2.40445 5.03134 2.59766C4.51743 2.79719 4.08157 3.06414 3.64735 3.49852C3.21274 3.93281 2.94579 4.36867 2.74563 4.88234C2.55188 5.37922 2.42009 5.94719 2.38266 6.77852C2.3454 7.61188 2.33563 7.87828 2.33563 10.0001C2.33563 12.1219 2.34501 12.3873 2.38282 13.2206C2.4211 14.0523 2.55274 14.6201 2.74579 15.1168C2.94548 15.6307 3.21243 16.0666 3.6468 16.5008C4.08094 16.9354 4.5168 17.203 5.03032 17.4025C5.52743 17.5957 6.09524 17.7273 6.9268 17.7655C7.76016 17.8034 8.02626 17.8127 10.1479 17.8127C12.2699 17.8127 12.5353 17.8034 13.3686 17.7655C14.2003 17.7273 14.7687 17.5957 15.2658 17.4025C15.7795 17.203 16.2147 16.9354 16.6488 16.5008C17.0834 16.0666 17.3502 15.6307 17.5505 15.117C17.7425 14.6201 17.8744 14.0522 17.9134 13.2208C17.9509 12.3875 17.9606 12.1219 17.9606 10.0001C17.9606 7.87828 17.9509 7.61203 17.9134 6.77867C17.8744 5.94695 17.7425 5.3793 17.5505 4.88258C17.3502 4.36867 17.0834 3.93281 16.6488 3.49852C16.2142 3.06398 15.7796 2.79703 15.2653 2.59773C14.7673 2.40445 14.1992 2.27273 13.3675 2.23469C12.5341 2.1968 12.2688 2.1875 10.1464 2.1875H10.1488ZM9.44798 3.59539C9.65602 3.59508 9.88813 3.59539 10.1488 3.59539C12.2349 3.59539 12.482 3.60289 13.3058 3.64031C14.0675 3.67516 14.4809 3.80242 14.7563 3.90938C15.1209 4.05094 15.3809 4.22023 15.6541 4.49375C15.9276 4.76719 16.0968 5.02758 16.2388 5.39219C16.3457 5.66719 16.4731 6.08063 16.5078 6.84234C16.5452 7.66594 16.5534 7.91328 16.5534 9.99828C16.5534 12.0833 16.5452 12.3307 16.5078 13.1542C16.473 13.9159 16.3457 14.3294 16.2388 14.6045C16.0972 14.9691 15.9276 15.2287 15.6541 15.502C15.3807 15.7754 15.1211 15.9446 14.7563 16.0863C14.4813 16.1937 14.0675 16.3206 13.3058 16.3555C12.4822 16.3929 12.2349 16.401 10.1488 16.401C8.06274 16.401 7.81548 16.3929 6.99196 16.3555C6.23024 16.3203 5.8168 16.193 5.54118 16.0861C5.17665 15.9445 4.91618 15.7752 4.64274 15.5018C4.3693 15.2284 4.20009 14.9686 4.05813 14.6038C3.95118 14.3287 3.82376 13.9153 3.78907 13.1536C3.75165 12.33 3.74415 12.0827 3.74415 9.99633C3.74415 7.91008 3.75165 7.66398 3.78907 6.84039C3.82391 6.07867 3.95118 5.66523 4.05813 5.38984C4.19977 5.02523 4.3693 4.76484 4.64282 4.49141C4.91626 4.21797 5.17665 4.04867 5.54126 3.9068C5.81665 3.79938 6.23024 3.67242 6.99196 3.63742C7.71266 3.60484 7.99196 3.59508 9.44798 3.59344V3.59539ZM14.3191 4.89258C13.8016 4.89258 13.3816 5.31211 13.3816 5.82977C13.3816 6.34734 13.8016 6.76727 14.3191 6.76727C14.8367 6.76727 15.2566 6.34734 15.2566 5.82977C15.2566 5.31219 14.8367 4.89227 14.3191 4.89227V4.89258ZM10.1488 5.98797C7.93321 5.98797 6.1368 7.78438 6.1368 10.0001C6.1368 12.2158 7.93321 14.0113 10.1488 14.0113C12.3645 14.0113 14.1603 12.2158 14.1603 10.0001C14.1603 7.78445 12.3644 5.98797 10.1487 5.98797H10.1488ZM10.1488 7.39586C11.587 7.39586 12.7531 8.56172 12.7531 10.0001C12.7531 11.4383 11.587 12.6043 10.1488 12.6043C8.71055 12.6043 7.54469 11.4383 7.54469 10.0001C7.54469 8.56172 8.71055 7.39586 10.1488 7.39586Z"
                  fill="white"
                />
              </g>
              <defs>
                <radialGradient
                  id="paint0_radial_630_348"
                  cx="0"
                  cy="0"
                  r="1"
                  gradientUnits="userSpaceOnUse"
                  gradientTransform="translate(5.46063 21.5404) rotate(-90) scale(19.8215 18.4355)"
                >
                  <stop stop-color="#FFDD55" />
                  <stop offset="0.1" stop-color="#FFDD55" />
                  <stop offset="0.5" stop-color="#FF543E" />
                  <stop offset="1" stop-color="#C837AB" />
                </radialGradient>
                <radialGradient
                  id="paint1_radial_630_348"
                  cx="0"
                  cy="0"
                  r="1"
                  gradientUnits="userSpaceOnUse"
                  gradientTransform="translate(-3.20195 1.4407) rotate(78.681) scale(8.86031 36.5225)"
                >
                  <stop stop-color="#3771C8" />
                  <stop offset="0.128" stop-color="#3771C8" />
                  <stop offset="1" stop-color="#6600FF" stop-opacity="0" />
                </radialGradient>
                <clipPath id="clip0_630_348">
                  <rect
                    width="20"
                    height="20"
                    fill="white"
                    transform="translate(0.148132)"
                  />
                </clipPath>
              </defs>
            </svg>