<svg xmlns="http://www.w3.org/2000/svg" width="38" height="38" viewBox="0 0 38 38" fill="none">
  <path d="M37.2173 9.86187C36.7791 8.2342 35.4957 6.95085 33.8681 6.51263C30.8944 5.69879 18.9999 5.69879 18.9999 5.69879C18.9999 5.69879 7.10541 5.69879 4.13178 6.48133C2.53541 6.91954 1.22075 8.2342 0.782534 9.86187C0 12.8355 0 19.0019 0 19.0019C0 19.0019 0 25.1995 0.782534 28.1419C1.22075 29.7695 2.50411 31.0529 4.13178 31.4911C7.13671 32.3049 18.9999 32.3049 18.9999 32.3049C18.9999 32.3049 30.8944 32.3049 33.8681 31.5224C35.4957 31.0842 36.7791 29.8008 37.2173 28.1732C37.9998 25.1995 37.9998 19.0332 37.9998 19.0332C37.9998 19.0332 38.0311 12.8355 37.2173 9.86187Z" fill="#FF0000"/>
  <path d="M15.2129 24.6984L25.1041 19.0015L15.2129 13.3047V24.6984Z" fill="white"/>
</svg>