  <svg
                xmlns="http://www.w3.org/2000/svg"
                width="26"
                height="28"
                viewBox="0 0 26 28"
                fill="none"
              >
                <path
                  d="M7.75 4.99951H4.75C4.55109 4.99951 4.36032 5.07853 4.21967 5.21918C4.07902 5.35983 4 5.5506 4 5.74951V8.74951C4 8.94842 4.07902 9.13919 4.21967 9.27984C4.36032 9.42049 4.55109 9.49951 4.75 9.49951H7.75C7.94891 9.49951 8.13968 9.42049 8.28033 9.27984C8.42098 9.13919 8.5 8.94842 8.5 8.74951V5.74951C8.5 5.5506 8.42098 5.35983 8.28033 5.21918C8.13968 5.07853 7.94891 4.99951 7.75 4.99951ZM7.75 11.7495H4.75C4.55109 11.7495 4.36032 11.8285 4.21967 11.9692C4.07902 12.1098 4 12.3006 4 12.4995V15.4995C4 15.6984 4.07902 15.8892 4.21967 16.0298C4.36032 16.1705 4.55109 16.2495 4.75 16.2495H7.75C7.94891 16.2495 8.13968 16.1705 8.28033 16.0298C8.42098 15.8892 8.5 15.6984 8.5 15.4995V12.4995C8.5 12.3006 8.42098 12.1098 8.28033 11.9692C8.13968 11.8285 7.94891 11.7495 7.75 11.7495ZM7.75 18.4995H4.75C4.55109 18.4995 4.36032 18.5785 4.21967 18.7192C4.07902 18.8598 4 19.0506 4 19.2495V22.2495C4 22.4484 4.07902 22.6392 4.21967 22.7798C4.36032 22.9205 4.55109 22.9995 4.75 22.9995H7.75C7.94891 22.9995 8.13968 22.9205 8.28033 22.7798C8.42098 22.6392 8.5 22.4484 8.5 22.2495V19.2495C8.5 19.0506 8.42098 18.8598 8.28033 18.7192C8.13968 18.5785 7.94891 18.4995 7.75 18.4995ZM14.5 4.99951H11.5C11.3011 4.99951 11.1103 5.07853 10.9697 5.21918C10.829 5.35983 10.75 5.5506 10.75 5.74951V8.74951C10.75 8.94842 10.829 9.13919 10.9697 9.27984C11.1103 9.42049 11.3011 9.49951 11.5 9.49951H14.5C14.6989 9.49951 14.8897 9.42049 15.0303 9.27984C15.171 9.13919 15.25 8.94842 15.25 8.74951V5.74951C15.25 5.5506 15.171 5.35983 15.0303 5.21918C14.8897 5.07853 14.6989 4.99951 14.5 4.99951ZM14.5 11.7495H11.5C11.3011 11.7495 11.1103 11.8285 10.9697 11.9692C10.829 12.1098 10.75 12.3006 10.75 12.4995V15.4995C10.75 15.6984 10.829 15.8892 10.9697 16.0298C11.1103 16.1705 11.3011 16.2495 11.5 16.2495H14.5C14.6989 16.2495 14.8897 16.1705 15.0303 16.0298C15.171 15.8892 15.25 15.6984 15.25 15.4995V12.4995C15.25 12.3006 15.171 12.1098 15.0303 11.9692C14.8897 11.8285 14.6989 11.7495 14.5 11.7495ZM14.5 18.4995H11.5C11.3011 18.4995 11.1103 18.5785 10.9697 18.7192C10.829 18.8598 10.75 19.0506 10.75 19.2495V22.2495C10.75 22.4484 10.829 22.6392 10.9697 22.7798C11.1103 22.9205 11.3011 22.9995 11.5 22.9995H14.5C14.6989 22.9995 14.8897 22.9205 15.0303 22.7798C15.171 22.6392 15.25 22.4484 15.25 22.2495V19.2495C15.25 19.0506 15.171 18.8598 15.0303 18.7192C14.8897 18.5785 14.6989 18.4995 14.5 18.4995ZM21.25 4.99951H18.25C18.0511 4.99951 17.8603 5.07853 17.7197 5.21918C17.579 5.35983 17.5 5.5506 17.5 5.74951V8.74951C17.5 8.94842 17.579 9.13919 17.7197 9.27984C17.8603 9.42049 18.0511 9.49951 18.25 9.49951H21.25C21.4489 9.49951 21.6397 9.42049 21.7803 9.27984C21.921 9.13919 22 8.94842 22 8.74951V5.74951C22 5.5506 21.921 5.35983 21.7803 5.21918C21.6397 5.07853 21.4489 4.99951 21.25 4.99951ZM21.25 11.7495H18.25C18.0511 11.7495 17.8603 11.8285 17.7197 11.9692C17.579 12.1098 17.5 12.3006 17.5 12.4995V15.4995C17.5 15.6984 17.579 15.8892 17.7197 16.0298C17.8603 16.1705 18.0511 16.2495 18.25 16.2495H21.25C21.4489 16.2495 21.6397 16.1705 21.7803 16.0298C21.921 15.8892 22 15.6984 22 15.4995V12.4995C22 12.3006 21.921 12.1098 21.7803 11.9692C21.6397 11.8285 21.4489 11.7495 21.25 11.7495ZM21.25 18.4995H18.25C18.0511 18.4995 17.8603 18.5785 17.7197 18.7192C17.579 18.8598 17.5 19.0506 17.5 19.2495V22.2495C17.5 22.4484 17.579 22.6392 17.7197 22.7798C17.8603 22.9205 18.0511 22.9995 18.25 22.9995H21.25C21.4489 22.9995 21.6397 22.9205 21.7803 22.7798C21.921 22.6392 22 22.4484 22 22.2495V19.2495C22 19.0506 21.921 18.8598 21.7803 18.7192C21.6397 18.5785 21.4489 18.4995 21.25 18.4995Z"
                  fill="#3F4753"
                />
              </svg>