<svg xmlns="http://www.w3.org/2000/svg" width="24" height="24" viewBox="0 0 24 24" fill="none">
  <path d="M17.5 2.83333C19.5222 2.83333 21.1667 4.47783 21.1667 6.5V17.5C21.1667 19.5222 19.5222 21.1667 17.5 21.1667H6.5C4.47783 21.1667 2.83333 19.5222 2.83333 17.5V6.5C2.83333 4.47783 4.47783 2.83333 6.5 2.83333H17.5ZM17.5 1H6.5C5.04131 1 3.64236 1.57946 2.61091 2.61091C1.57946 3.64236 1 5.04131 1 6.5L1 17.5C1 18.9587 1.57946 20.3576 2.61091 21.3891C3.64236 22.4205 5.04131 23 6.5 23H17.5C18.9587 23 20.3576 22.4205 21.3891 21.3891C22.4205 20.3576 23 18.9587 23 17.5V6.5C23 5.04131 22.4205 3.64236 21.3891 2.61091C20.3576 1.57946 18.9587 1 17.5 1Z" fill="#339AF0"/>
  <path d="M12.0002 17.5C11.757 17.5 11.5239 17.4034 11.352 17.2315C11.1801 17.0596 11.0835 16.8264 11.0835 16.5833V7.41667C11.0835 7.17355 11.1801 6.94039 11.352 6.76849C11.5239 6.59658 11.757 6.5 12.0002 6.5C12.2433 6.5 12.4764 6.59658 12.6483 6.76849C12.8203 6.94039 12.9168 7.17355 12.9168 7.41667V16.5833C12.9168 16.8264 12.8203 17.0596 12.6483 17.2315C12.4764 17.4034 12.2433 17.5 12.0002 17.5Z" fill="#339AF0"/>
  <path d="M6.5 11.9999C6.5 11.7568 6.59658 11.5236 6.76849 11.3517C6.94039 11.1798 7.17355 11.0833 7.41667 11.0833H16.5833C16.8264 11.0833 17.0596 11.1798 17.2315 11.3517C17.4034 11.5236 17.5 11.7568 17.5 11.9999C17.5 12.243 17.4034 12.4762 17.2315 12.6481C17.0596 12.82 16.8264 12.9166 16.5833 12.9166H7.41667C7.17355 12.9166 6.94039 12.82 6.76849 12.6481C6.59658 12.4762 6.5 12.243 6.5 11.9999Z" fill="#339AF0"/>
</svg>