   <svg
                  xmlns="http://www.w3.org/2000/svg"
                  width="24"
                  height="24"
                  viewBox="0 0 24 24"
                  fill="none"
                >
                  <path
                    d="M14.8501 13.4135L12.6193 11.7404V8.33221C12.6193 7.98952 12.3423 7.71252 11.9996 7.71252C11.6569 7.71252 11.3799 7.98952 11.3799 8.33221V12.0503C11.3799 12.2455 11.4716 12.4295 11.6278 12.546L14.1064 14.4051C14.2134 14.4856 14.3437 14.5291 14.4776 14.529C14.6666 14.529 14.8525 14.4441 14.974 14.2805C15.1798 14.0072 15.124 13.6186 14.8501 13.4135Z"
                    fill="#6F757E"
                  />
                  <path
                    d="M12 4C7.58853 4 4 7.58853 4 12C4 16.4115 7.58853 20 12 20C16.4115 20 20 16.4115 20 12C20 7.58853 16.4115 4 12 4ZM12 18.7607C8.27266 18.7607 5.23934 15.7273 5.23934 12C5.23934 8.27266 8.27266 5.23934 12 5.23934C15.728 5.23934 18.7607 8.27266 18.7607 12C18.7607 15.7273 15.7273 18.7607 12 18.7607Z"
                    fill="#6F757E"
                  />
                </svg>