<svg xmlns="http://www.w3.org/2000/svg" width="30" height="30" viewBox="0 0 30 30" fill="none">
  <g clip-path="url(#clip0_791_12386)">
    <path d="M7.60722 29.8939C5.82311 29.8128 4.85393 29.5159 4.20929 29.2644C3.35513 28.9319 2.74616 28.536 2.10509 27.8958C1.46402 27.2556 1.06726 26.6467 0.73647 25.7925C0.485036 25.1479 0.18813 24.1787 0.106993 22.3946C0.0178322 20.466 0 19.8874 0 15.0013C0 10.1153 0.0196154 9.53755 0.106102 7.60722C0.187238 5.8231 0.485928 4.85571 0.735579 4.20929C1.06815 3.35513 1.46492 2.74616 2.1042 2.1042C2.74438 1.46402 3.35335 1.06637 4.2084 0.735578C4.85304 0.484144 5.82222 0.187238 7.60633 0.106102C9.53577 0.0178322 10.1153 0 14.9996 0C19.8856 0 20.4634 0.0196154 22.3937 0.106102C24.1778 0.187238 25.1452 0.485927 25.7916 0.735578C26.6458 1.06637 27.2547 1.46402 27.8958 2.1042C28.5369 2.74438 28.9319 3.35424 29.2644 4.2084C29.5159 4.85303 29.8128 5.82221 29.8939 7.60632C29.9822 9.53666 30 10.1144 30 15.0004C30 19.8847 29.9822 20.4642 29.8939 22.3946C29.8128 24.1787 29.5141 25.1479 29.2644 25.7925C28.9319 26.6467 28.536 27.2556 27.8958 27.8958C27.2556 28.536 26.6458 28.9319 25.7916 29.2644C25.147 29.5159 24.1778 29.8128 22.3937 29.8939C20.4651 29.9822 19.8856 30 14.9996 30C10.1153 30 9.53577 29.9831 7.60722 29.8939Z" fill="url(#paint0_radial_791_12386)"/>
    <path d="M7.60722 29.8939C5.82311 29.8128 4.85393 29.5159 4.20929 29.2644C3.35513 28.9319 2.74616 28.536 2.10509 27.8958C1.46402 27.2556 1.06726 26.6467 0.73647 25.7925C0.485036 25.1479 0.18813 24.1787 0.106993 22.3946C0.0178322 20.466 0 19.8874 0 15.0013C0 10.1153 0.0196154 9.53755 0.106102 7.60722C0.187238 5.8231 0.485928 4.85571 0.735579 4.20929C1.06815 3.35513 1.46492 2.74616 2.1042 2.1042C2.74438 1.46402 3.35335 1.06637 4.2084 0.735578C4.85304 0.484144 5.82222 0.187238 7.60633 0.106102C9.53577 0.0178322 10.1153 0 14.9996 0C19.8856 0 20.4634 0.0196154 22.3937 0.106102C24.1778 0.187238 25.1452 0.485927 25.7916 0.735578C26.6458 1.06637 27.2547 1.46402 27.8958 2.1042C28.5369 2.74438 28.9319 3.35424 29.2644 4.2084C29.5159 4.85303 29.8128 5.82221 29.8939 7.60632C29.9822 9.53666 30 10.1144 30 15.0004C30 19.8847 29.9822 20.4642 29.8939 22.3946C29.8128 24.1787 29.5141 25.1479 29.2644 25.7925C28.9319 26.6467 28.536 27.2556 27.8958 27.8958C27.2556 28.536 26.6458 28.9319 25.7916 29.2644C25.147 29.5159 24.1778 29.8128 22.3937 29.8939C20.4651 29.9822 19.8856 30 14.9996 30C10.1153 30 9.53577 29.9831 7.60722 29.8939Z" fill="url(#paint1_radial_791_12386)"/>
    <path d="M11.7151 15.4292C11.7151 13.378 13.3776 11.7147 15.4289 11.7147C17.4803 11.7147 19.1437 13.378 19.1437 15.4292C19.1437 17.4805 17.4803 19.1438 15.4289 19.1438C13.3776 19.1438 11.7151 17.4805 11.7151 15.4292ZM9.707 15.4292C9.707 18.5894 12.2687 21.151 15.4289 21.151C18.5892 21.151 21.1509 18.5894 21.1509 15.4292C21.1509 12.2691 18.5892 9.70751 15.4289 9.70751C12.2687 9.70751 9.70708 12.2689 9.70708 15.4292M20.0403 9.48064C20.0402 9.74511 20.1185 10.0037 20.2654 10.2236C20.4122 10.4436 20.621 10.615 20.8653 10.7163C21.1096 10.8176 21.3785 10.8442 21.6379 10.7927C21.8973 10.7412 22.1356 10.614 22.3227 10.4271C22.5098 10.2401 22.6372 10.0019 22.6889 9.74257C22.7406 9.48321 22.7142 9.21434 22.6131 8.96997C22.512 8.7256 22.3407 8.5167 22.1209 8.36968C21.901 8.22267 21.6425 8.14414 21.378 8.14404H21.3775C21.023 8.1442 20.6831 8.28506 20.4323 8.53567C20.1816 8.78628 20.0406 9.12615 20.0403 9.48064ZM10.9271 24.4993C9.84063 24.4499 9.25012 24.2689 8.8577 24.116C8.33744 23.9135 7.96623 23.6723 7.57595 23.2825C7.18567 22.8928 6.94408 22.522 6.74243 22.0017C6.58946 21.6095 6.40849 21.0189 6.3591 19.9325C6.30508 18.7579 6.29429 18.4051 6.29429 15.4294C6.29429 12.4537 6.30597 12.1019 6.3591 10.9264C6.40858 9.83998 6.59088 9.25048 6.74243 8.85709C6.94497 8.33685 7.1862 7.96566 7.57595 7.57539C7.9657 7.18512 8.33655 6.94355 8.8577 6.74191C9.24994 6.58894 9.84063 6.40798 10.9271 6.35859C12.1016 6.30457 12.4545 6.29379 15.4289 6.29379C18.4034 6.29379 18.7566 6.30528 19.9322 6.35877C21.0186 6.40824 21.6081 6.59054 22.0015 6.74208C22.5218 6.94373 22.893 7.18584 23.2833 7.57557C23.6736 7.9653 23.9143 8.33703 24.1168 8.85727C24.2698 9.2495 24.4507 9.84016 24.5001 10.9265C24.5542 12.1021 24.5649 12.4539 24.5649 15.4296C24.5649 18.4053 24.5542 18.7571 24.5001 19.9326C24.4507 21.019 24.2688 21.6095 24.1168 22.0019C23.9143 22.5222 23.673 22.8933 23.2833 23.2827C22.8935 23.6721 22.5218 23.9137 22.0015 24.1162C21.6093 24.2692 21.0186 24.4501 19.9322 24.4995C18.7576 24.5535 18.4047 24.5643 15.4289 24.5643C12.4532 24.5643 12.1013 24.5535 10.9271 24.4995M10.8348 4.35386C9.64852 4.40788 8.83791 4.59597 8.13 4.87142C7.3973 5.15588 6.77622 5.5375 6.15603 6.15668C5.53583 6.77587 5.15518 7.39702 4.87071 8.13057C4.59525 8.8389 4.40715 9.64903 4.35313 10.8353C4.29821 12.0234 4.28564 12.4032 4.28564 15.4292C4.28564 18.4553 4.29821 18.8351 4.35313 20.0232C4.40715 21.2095 4.59525 22.0196 4.87071 22.7279C5.15518 23.4606 5.53592 24.0829 6.15603 24.7018C6.77613 25.3207 7.39641 25.7018 8.13 25.987C8.83924 26.2625 9.64852 26.4506 10.8348 26.5046C12.0236 26.5586 12.4028 26.5721 15.4289 26.5721C18.4551 26.5721 18.835 26.5595 20.0231 26.5046C21.2095 26.4506 22.0195 26.2625 22.7279 25.987C23.4606 25.7018 24.0817 25.321 24.7019 24.7018C25.3221 24.0826 25.7019 23.4606 25.9872 22.7279C26.2626 22.0196 26.4516 21.2094 26.5048 20.0232C26.5588 18.8342 26.5714 18.4553 26.5714 15.4292C26.5714 12.4032 26.5588 12.0234 26.5048 10.8353C26.4507 9.64894 26.2626 8.83846 25.9872 8.13057C25.7019 7.39791 25.3211 6.77685 24.7019 6.15668C24.0827 5.53652 23.4606 5.15588 22.7288 4.87142C22.0195 4.59597 21.2094 4.40699 20.024 4.35386C18.8357 4.29957 18.456 4.28638 15.4303 4.28638C12.4046 4.28638 12.024 4.29895 10.8352 4.35386" fill="white"/>
  </g>
  <defs>
    <radialGradient id="paint0_radial_791_12386" cx="0" cy="0" r="1" gradientUnits="userSpaceOnUse" gradientTransform="translate(1.94157 29.3428) scale(38.0889 38.0889)">
      <stop offset="0.09" stop-color="#FA8F21"/>
      <stop offset="0.78" stop-color="#D82D7E"/>
    </radialGradient>
    <radialGradient id="paint1_radial_791_12386" cx="0" cy="0" r="1" gradientUnits="userSpaceOnUse" gradientTransform="translate(20.78 28.3795) scale(33.5186 33.5186)">
      <stop offset="0.64" stop-color="#8C3AAA" stop-opacity="0"/>
      <stop offset="1" stop-color="#8C3AAA"/>
    </radialGradient>
    <clipPath id="clip0_791_12386">
      <rect width="30" height="30" fill="white"/>
    </clipPath>
  </defs>
</svg>