<svg xmlns="http://www.w3.org/2000/svg" width="362" height="240" viewBox="0 0 362 240" fill="none">
  <path d="M225.039 150.916C225.039 142.261 222.46 133.8 217.627 126.604C212.795 119.407 205.927 113.799 197.89 110.486C189.854 107.174 181.012 106.308 172.481 107.996C163.95 109.685 156.114 113.853 149.963 119.973C143.812 126.093 139.624 133.89 137.927 142.379C136.23 150.867 137.101 159.666 140.43 167.662C143.758 175.658 149.395 182.493 156.627 187.301C163.86 192.11 172.362 194.676 181.061 194.676C192.705 194.613 203.854 189.982 212.088 181.789C220.322 173.596 224.976 162.502 225.039 150.916ZM149.142 150.916C149.142 144.634 151.014 138.494 154.521 133.271C158.028 128.048 163.013 123.977 168.846 121.573C174.678 119.169 181.096 118.54 187.288 119.766C193.479 120.991 199.167 124.016 203.63 128.458C208.094 132.9 211.134 138.559 212.366 144.72C213.598 150.881 212.965 157.267 210.55 163.07C208.134 168.873 204.043 173.834 198.794 177.324C193.545 180.813 187.374 182.676 181.061 182.676C172.615 182.613 164.533 179.247 158.56 173.304C152.588 167.362 149.205 159.32 149.142 150.916ZM181.061 135.996C179.461 135.996 177.928 135.364 176.797 134.238C175.666 133.113 175.031 131.587 175.031 129.996C175.031 128.404 175.666 126.878 176.797 125.753C177.928 124.628 179.461 123.996 181.061 123.996C188.233 124.006 195.108 126.846 200.179 131.892C205.251 136.938 208.104 143.779 208.115 150.916C208.115 152.507 207.48 154.033 206.349 155.159C205.218 156.284 203.684 156.916 202.085 156.916C200.486 156.916 198.952 156.284 197.821 155.159C196.69 154.033 196.055 152.507 196.055 150.916C196.055 148.956 195.667 147.016 194.914 145.206C194.16 143.396 193.056 141.751 191.663 140.366C190.271 138.98 188.618 137.881 186.799 137.131C184.98 136.382 183.03 135.996 181.061 135.996ZM341.337 195.636V177.556C341.337 175.965 340.702 174.439 339.571 173.313C338.44 172.188 336.907 171.556 335.307 171.556H326.825V159.556C326.866 131.691 318.824 104.406 303.664 80.9768C288.504 57.5478 266.87 38.9703 241.36 27.4747C241.347 22.3287 239.553 17.3444 236.28 13.3597C233.008 9.37494 228.456 6.63288 223.391 5.59451C194.742 -1.86484 164.646 -1.86484 135.997 5.59451C130.759 6.68023 126.088 9.60609 122.84 13.8369C119.592 18.0677 117.984 23.3206 118.309 28.6347C93.4886 40.4353 72.5261 58.9761 57.8385 82.1191C43.1508 105.262 35.3363 132.065 35.296 159.436V171.436H30.1504C29.3586 171.436 28.5745 171.591 27.8429 171.893C27.1113 172.194 26.4465 172.636 25.8866 173.193C25.3267 173.751 24.8825 174.412 24.5795 175.14C24.2764 175.868 24.1205 176.648 24.1205 177.436V194.596C10.3721 197.636 0.000581957 207.916 0.000581957 220.116V233.917C-0.0107526 234.728 0.143588 235.534 0.454261 236.285C0.764934 237.035 1.22548 237.715 1.80801 238.284C2.39053 238.852 3.08293 239.297 3.84329 239.592C4.60364 239.886 5.41612 240.024 6.23155 239.997H355.97C357.569 239.997 359.103 239.364 360.234 238.239C361.365 237.114 362 235.588 362 233.997V220.236C361.96 209.036 353.357 199.476 341.337 195.636ZM329.277 193.796H229.3C232.134 190.634 234.652 187.204 236.818 183.556H329.277V193.796ZM125.143 183.556C127.359 187.211 129.931 190.641 132.821 193.796H36.3412V183.556H125.143ZM128.198 150.916C128.198 140.512 131.298 130.343 137.107 121.693C142.915 113.042 151.171 106.301 160.831 102.319C170.49 98.3381 181.119 97.2964 191.374 99.326C201.628 101.356 211.047 106.365 218.44 113.722C225.833 121.078 230.868 130.45 232.908 140.654C234.947 150.857 233.9 161.434 229.899 171.045C225.898 180.657 219.123 188.872 210.43 194.652C201.736 200.431 191.516 203.516 181.061 203.516C167.047 203.495 153.614 197.947 143.704 188.087C133.795 178.227 128.219 164.86 128.198 150.916ZM314.765 159.436V171.436H242.406C246.248 160.288 246.922 148.302 244.355 136.797C241.787 125.292 236.077 114.717 227.853 106.235L239.551 39.9948C262.084 50.8813 281.085 67.8541 294.385 88.9746C307.685 110.095 314.747 134.512 314.765 159.436ZM139.132 17.1146C165.81 10.215 193.818 10.215 220.497 17.1146C226.486 18.6346 230.225 23.1547 229.381 27.8747L217.24 97.3553C206.17 89.9033 193.049 86.0514 179.686 86.3308C166.323 86.6102 153.376 91.0071 142.63 98.9154L130.328 27.9947C130.129 25.4071 130.929 22.8413 132.565 20.8199C134.201 18.7985 136.549 17.4734 139.132 17.1146ZM47.356 159.436C47.3814 134.903 54.2153 110.854 67.1041 89.9405C79.9929 69.0269 98.4358 52.0614 120.399 40.9148L132.178 108.555C124.687 117.022 119.578 127.308 117.368 138.371C115.159 149.435 115.927 160.883 119.595 171.556H47.2354L47.356 159.436ZM349.9 227.997H12.2213V219.996C12.2213 211.996 21.5075 205.556 32.3212 205.556H144.881C145.437 205.538 145.99 205.458 146.529 205.316C156.805 211.77 168.708 215.195 180.86 215.195C193.011 215.195 204.914 211.77 215.19 205.316H329.8C340.734 205.316 349.9 211.916 349.9 219.756V227.997ZM111.475 75.5152C112.001 76.1057 112.405 76.7936 112.663 77.5397C112.922 78.2858 113.03 79.0753 112.982 79.8631C112.933 80.6508 112.729 81.4213 112.381 82.1303C112.032 82.8394 111.547 83.4731 110.952 83.9952C94.2916 98.5836 82.6733 118.024 77.747 139.556C77.4532 140.886 76.7105 142.075 75.6427 142.927C74.5749 143.778 73.2463 144.24 71.8779 144.236C71.4376 144.295 70.9915 144.295 70.5513 144.236C69.7787 144.066 69.0477 143.745 68.4004 143.292C67.7531 142.84 67.2024 142.264 66.78 141.598C66.3576 140.932 66.072 140.19 65.9396 139.414C65.8072 138.637 65.8307 137.843 66.0087 137.076C71.4387 113.07 84.3719 91.3928 102.952 75.1551C104.135 74.0879 105.693 73.5272 107.288 73.5946C108.883 73.6619 110.387 74.352 111.475 75.5152Z" fill="#CFD1D4"/>
</svg>