 <svg
                xmlns="http://www.w3.org/2000/svg"
                width="24"
                height="24"
                viewBox="0 0 24 24"
                fill="none"
              >
                <path
                  d="M9 8.00196C8.73478 8.00196 8.48043 8.10732 8.29289 8.29486C8.10536 8.48239 8 8.73675 8 9.00196C8 9.26718 8.10536 9.52153 8.29289 9.70907C8.48043 9.89661 8.73478 10.002 9 10.002C9.26522 10.002 9.51957 9.89661 9.70711 9.70907C9.89464 9.52153 10 9.26718 10 9.00196C10 8.73675 9.89464 8.48239 9.70711 8.29486C9.51957 8.10732 9.26522 8.00196 9 8.00196ZM6.17 8.00196C6.3766 7.41643 6.75974 6.9094 7.2666 6.55075C7.77346 6.19211 8.37909 5.99951 9 5.99951C9.62091 5.99951 10.2265 6.19211 10.7334 6.55075C11.2403 6.9094 11.6234 7.41643 11.83 8.00196H19C19.2652 8.00196 19.5196 8.10732 19.7071 8.29486C19.8946 8.48239 20 8.73675 20 9.00196C20 9.26718 19.8946 9.52153 19.7071 9.70907C19.5196 9.89661 19.2652 10.002 19 10.002H11.83C11.6234 10.5875 11.2403 11.0945 10.7334 11.4532C10.2265 11.8118 9.62091 12.0044 9 12.0044C8.37909 12.0044 7.77346 11.8118 7.2666 11.4532C6.75974 11.0945 6.3766 10.5875 6.17 10.002H5C4.73478 10.002 4.48043 9.89661 4.29289 9.70907C4.10536 9.52153 4 9.26718 4 9.00196C4 8.73675 4.10536 8.48239 4.29289 8.29486C4.48043 8.10732 4.73478 8.00196 5 8.00196H6.17ZM15 14.002C14.7348 14.002 14.4804 14.1073 14.2929 14.2949C14.1054 14.4824 14 14.7367 14 15.002C14 15.2672 14.1054 15.5215 14.2929 15.7091C14.4804 15.8966 14.7348 16.002 15 16.002C15.2652 16.002 15.5196 15.8966 15.7071 15.7091C15.8946 15.5215 16 15.2672 16 15.002C16 14.7367 15.8946 14.4824 15.7071 14.2949C15.5196 14.1073 15.2652 14.002 15 14.002ZM12.17 14.002C12.3766 13.4164 12.7597 12.9094 13.2666 12.5508C13.7735 12.1921 14.3791 11.9995 15 11.9995C15.6209 11.9995 16.2265 12.1921 16.7334 12.5508C17.2403 12.9094 17.6234 13.4164 17.83 14.002H19C19.2652 14.002 19.5196 14.1073 19.7071 14.2949C19.8946 14.4824 20 14.7367 20 15.002C20 15.2672 19.8946 15.5215 19.7071 15.7091C19.5196 15.8966 19.2652 16.002 19 16.002H17.83C17.6234 16.5875 17.2403 17.0945 16.7334 17.4532C16.2265 17.8118 15.6209 18.0044 15 18.0044C14.3791 18.0044 13.7735 17.8118 13.2666 17.4532C12.7597 17.0945 12.3766 16.5875 12.17 16.002H5C4.73478 16.002 4.48043 15.8966 4.29289 15.7091C4.10536 15.5215 4 15.2672 4 15.002C4 14.7367 4.10536 14.4824 4.29289 14.2949C4.48043 14.1073 4.73478 14.002 5 14.002H12.17Z"
                  fill="#6F757E"
                />
              </svg>