 <svg
                  xmlns="http://www.w3.org/2000/svg"
                  width="24"
                  height="24"
                  viewBox="0 0 24 24"
                  fill="none"
                >
                  <path
                    d="M19.9215 10.8922C19.6329 8.79617 18.5214 6.90029 16.8314 5.62165C15.1414 4.34302 13.0114 3.78638 10.91 4.07418C8.80851 4.36199 6.90775 5.47066 5.62583 7.15631C4.3439 8.84196 3.78583 10.9665 4.07438 13.0626C4.31118 14.7973 5.10996 16.4072 6.34904 17.6471C7.58813 18.8871 9.19959 19.689 10.9379 19.9309C11.2943 19.977 11.6532 20.0001 12.0126 20C13.4622 20.0026 14.8848 19.6081 16.1251 18.8595C16.1886 18.8254 16.2446 18.7788 16.2896 18.7224C16.3345 18.6661 16.3676 18.6013 16.3867 18.5318C16.4057 18.4624 16.4105 18.3898 16.4006 18.3185C16.3907 18.2471 16.3664 18.1785 16.3291 18.1169C16.2919 18.0552 16.2424 18.0017 16.1838 17.9597C16.1252 17.9176 16.0587 17.8879 15.9882 17.8723C15.9177 17.8566 15.8448 17.8555 15.7739 17.8688C15.7029 17.8821 15.6354 17.9097 15.5755 17.9498C14.1704 18.7923 12.5114 19.1109 10.893 18.849C9.27471 18.5872 7.80179 17.7618 6.73576 16.5194C5.66973 15.277 5.07958 13.698 5.07008 12.0627C5.06058 10.4275 5.63235 8.8418 6.68387 7.58717C7.73538 6.33254 9.19862 5.49017 10.8138 5.2096C12.429 4.92903 14.0915 5.22843 15.5064 6.05463C16.9212 6.88083 17.9968 8.18038 18.542 9.72256C19.0873 11.2647 19.0671 12.9498 18.4849 14.4784C18.3898 14.7281 18.2101 14.9367 17.9769 15.0679C17.7436 15.1992 17.4717 15.2448 17.2083 15.1968C16.9449 15.1488 16.7066 15.0104 16.5349 14.8054C16.3632 14.6005 16.269 14.342 16.2685 14.0749V8.30294C16.2685 8.16192 16.2123 8.02669 16.1123 7.92698C16.0124 7.82727 15.8768 7.77125 15.7354 7.77125C15.594 7.77125 15.4585 7.82727 15.3585 7.92698C15.2585 8.02669 15.2024 8.16192 15.2024 8.30294V9.22062C14.6255 8.56587 13.8609 8.10369 13.012 7.89664C12.1632 7.68958 11.271 7.74765 10.4563 8.06298C9.64163 8.37832 8.94373 8.93569 8.45707 9.65966C7.97042 10.3836 7.71851 11.2393 7.73543 12.1107C7.75236 12.9822 8.0373 13.8275 8.5517 14.5321C9.0661 15.2367 9.78511 15.7667 10.6114 16.0504C11.4378 16.334 12.3315 16.3575 13.1717 16.1179C14.0119 15.8782 14.758 15.3868 15.309 14.7103C15.4412 15.1508 15.7086 15.5389 16.0736 15.82C16.4385 16.101 16.8827 16.2608 17.3435 16.2769C17.8042 16.293 18.2585 16.1645 18.6423 15.9096C19.026 15.6547 19.32 15.2862 19.4828 14.8559C19.9586 13.592 20.1095 12.2293 19.9215 10.8922ZM12.0041 15.2148C11.3715 15.2148 10.7531 15.0277 10.2272 14.6772C9.70121 14.3267 9.29127 13.8284 9.0492 13.2455C8.80713 12.6626 8.74379 12.0212 8.8672 11.4024C8.9906 10.7835 9.29521 10.2151 9.7425 9.76898C10.1898 9.32284 10.7597 9.01901 11.3801 8.89592C12.0005 8.77283 12.6436 8.836 13.228 9.07745C13.8124 9.3189 14.3119 9.72779 14.6633 10.2524C15.0148 10.777 15.2024 11.3938 15.2024 12.0247C15.2015 12.8705 14.8643 13.6815 14.2647 14.2795C13.665 14.8776 12.852 15.214 12.0041 15.2148Z"
                    fill="#6F757E"
                  />
                </svg>