<svg xmlns="http://www.w3.org/2000/svg" width="24" height="24" viewBox="0 0 24 24" fill="none">
  <path d="M19.5055 8.95148H15.4101L16.2145 6.53564C16.4638 5.78138 16.4592 4.96621 16.2013 4.21483C15.9435 3.46345 15.4466 2.81723 14.7866 2.37503C14.2927 2.05026 13.6919 1.92997 13.111 2.03951C12.5301 2.14905 12.0144 2.47986 11.6727 2.96221L7.29863 9.20686C7.12651 9.0429 6.8979 8.95146 6.66019 8.95148H2.93204C2.68485 8.95148 2.44778 9.04968 2.27299 9.22447C2.0982 9.39926 2 9.63633 2 9.88352V21.068C2 21.3152 2.0982 21.5522 2.27299 21.727C2.44778 21.9018 2.68485 22 2.93204 22H6.66019C6.90738 22 7.14444 21.9018 7.31924 21.727C7.49403 21.5522 7.59222 21.3152 7.59222 21.068V20.9449L8.93902 21.8434C9.09234 21.9453 9.27224 21.9997 9.4563 22H17.8446C18.0178 22.0001 18.1876 21.9519 18.335 21.8609C18.4823 21.7698 18.6014 21.6395 18.6788 21.4846L22.0882 14.6649C22.3613 14.1164 22.5039 13.5123 22.5048 12.8996V11.9508C22.5038 11.1556 22.1875 10.3933 21.6253 9.83104C21.063 9.26878 20.3007 8.95247 19.5055 8.95148ZM5.72815 20.1359H3.86407V10.8156H5.72815V20.1359ZM20.6407 12.8996C20.6401 13.2231 20.5648 13.542 20.4208 13.8316L17.2686 20.1359H9.73591L7.59222 18.7052V12.0412L13.2003 4.03032C13.2603 3.94384 13.3518 3.88442 13.4553 3.86489C13.5587 3.84536 13.6656 3.86728 13.753 3.92594C14.0736 4.14058 14.3151 4.45442 14.4403 4.81938C14.5655 5.18434 14.5677 5.58029 14.4464 5.94659L13.2348 9.58899C13.1882 9.72889 13.1754 9.87784 13.1976 10.0236C13.2198 10.1694 13.2762 10.3078 13.3623 10.4275C13.4483 10.5473 13.5616 10.6449 13.6927 10.7123C13.8238 10.7798 13.969 10.8151 14.1165 10.8156H19.5055C19.8065 10.8158 20.0951 10.9355 20.308 11.1483C20.5208 11.3612 20.6405 11.6498 20.6407 11.9508V12.8996Z" fill="#339AF0"/>
</svg>