<svg xmlns="http://www.w3.org/2000/svg" width="24" height="24" viewBox="0 0 24 24" fill="none">
  <path d="M6.96589 5.46466C10.3036 5.65234 13.6507 5.65365 16.9886 5.46859C18.528 5.39112 19.849 6.46321 19.9515 7.87334C20.0404 8.31629 19.3609 20.1398 19.4059 20.539C19.3449 21.914 18.1111 22.9997 16.6098 22.9997H7.41315C5.91725 22.9997 4.68597 21.9212 4.61794 20.5514L4.00192 8.1411C3.98748 7.78261 4.05461 7.42529 4.19905 7.09188C4.34348 6.75848 4.56205 6.45628 4.84085 6.20453C5.11965 5.95277 5.45257 5.75698 5.81842 5.6296C6.18428 5.50222 6.57506 5.44605 6.96589 5.46466ZM6.78419 6.84065C6.61115 6.84343 6.44046 6.87784 6.28211 6.94185C6.12376 7.00586 5.98094 7.0982 5.86202 7.21344C5.74309 7.32869 5.65044 7.46452 5.58951 7.613C5.52857 7.76148 5.50057 7.91961 5.50714 8.07813L6.12297 20.4885C6.15428 21.1208 6.72265 21.6186 7.41315 21.6186H16.6098C17.3027 21.6186 17.8721 21.1174 17.9002 20.4827C17.8787 20.3136 18.4751 8.12034 18.4474 7.95715C18.4042 7.30453 17.7921 6.80759 17.0801 6.84712C15.4016 6.94059 13.7204 6.98744 12.0388 6.98761C10.305 6.99041 8.55158 6.93219 6.78419 6.84065Z" fill="#F04848"/>
  <path fill-rule="evenodd" clip-rule="evenodd" d="M12.0581 8.39893C12.4148 8.39893 12.7039 8.66393 12.7039 8.99082V19.2506C12.7039 19.5774 12.4148 19.8425 12.0581 19.8425C11.7015 19.8425 11.4124 19.5774 11.4124 19.2506V8.99082C11.4124 8.66393 11.7015 8.39893 12.0581 8.39893ZM15.5046 8.40246C15.8607 8.41395 16.1394 8.68767 16.1273 9.01409L15.7375 19.2681C15.725 19.595 15.4258 19.8507 15.0692 19.8393C14.7126 19.8279 14.4336 19.5536 14.4461 19.2267L14.8367 8.97326C14.8493 8.64684 15.1479 8.39137 15.504 8.40246H15.5046ZM8.6116 8.40246C8.2554 8.41382 7.97656 8.68758 7.98866 9.01409L8.37933 19.2675C8.38327 19.3714 8.41699 19.4726 8.4771 19.5607C8.5372 19.6489 8.62157 19.721 8.72173 19.7698C8.82189 19.8186 8.93429 19.8424 9.04765 19.8388C9.16101 19.8351 9.27133 19.8042 9.3675 19.7491C9.46368 19.694 9.54235 19.6166 9.59558 19.5248C9.64882 19.433 9.67475 19.33 9.67078 19.2261L9.28011 8.97326C9.26556 8.64722 8.96742 8.39267 8.6116 8.40246Z" fill="#F04848"/>
  <path d="M14.6218 1C15.9914 1.01972 16.5982 2.12009 16.4514 3.2536C17.2 3.22245 17.9462 3.15354 18.6865 3.04721C19.0961 2.98009 19.4875 3.23003 19.5607 3.60548C19.634 3.98093 19.3613 4.33972 18.9517 4.40683C14.3017 4.8106 9.62039 4.8106 4.97035 4.40683C4.00647 4.2395 4.27146 2.8876 5.24457 3.0488C5.96232 3.15123 6.68537 3.21946 7.41082 3.25321C7.26208 2.11456 7.87918 1.01757 9.24065 1H14.6218ZM14.6218 2.38112H9.24065C8.76561 2.37538 8.95221 3.05489 8.91779 3.31083C10.912 3.36033 12.9504 3.35956 14.9447 3.31083C14.9096 3.05847 15.0964 2.36929 14.6218 2.38112Z" fill="#F04848"/>
</svg>