  <svg
                  xmlns="http://www.w3.org/2000/svg"
                  width="24"
                  height="24"
                  viewBox="0 0 24 24"
                  fill="none"
                >
                  <path
                    d="M11.6164 4C10.6026 3.99878 9.61487 4.30998 8.79664 4.88836C7.97841 5.46675 7.37236 6.28219 7.06655 7.2162C6.76074 8.15021 6.7711 9.15411 7.09613 10.082C7.42117 11.01 8.04394 11.8136 8.87394 12.3761C7.43763 12.9307 6.20594 13.888 5.33734 15.1248C4.46875 16.3615 4.00299 17.8212 4 19.3158C4.01177 19.5008 4.09609 19.6744 4.23577 19.8013C4.37545 19.9282 4.55996 19.9989 4.7517 19.9989C4.94343 19.9989 5.12795 19.9282 5.26762 19.8013C5.4073 19.6744 5.49162 19.5008 5.50339 19.3158C5.50088 18.2424 5.79572 17.1879 6.35731 16.2617C6.9189 15.3355 7.72678 14.5715 8.69708 14.0489C9.66739 13.5262 10.7648 13.2641 11.8753 13.2896C12.9858 13.3152 14.0691 13.6275 15.0126 14.1941C15.0969 14.2446 15.1907 14.2785 15.2886 14.294C15.3866 14.3094 15.4867 14.3061 15.5833 14.2842C15.6798 14.2622 15.771 14.2221 15.8516 14.1661C15.9321 14.1102 16.0005 14.0394 16.0527 13.9579C16.105 13.8764 16.1401 13.7857 16.1561 13.6911C16.1721 13.5965 16.1686 13.4998 16.1459 13.4064C16.1232 13.3131 16.0817 13.225 16.0238 13.1472C15.9659 13.0693 15.8926 13.0033 15.8083 12.9528C15.3716 12.6988 14.9099 12.4872 14.43 12.3211C15.615 11.4835 16.3909 10.1351 16.3909 8.6137C16.3909 6.07891 14.2395 4 11.6164 4ZM11.6164 5.45552C13.4267 5.45552 14.8847 6.86434 14.8847 8.6137C14.8847 10.3631 13.4267 11.7691 11.6164 11.7691C9.8061 11.7691 8.35103 10.3686 8.35103 8.6137C8.35103 6.86434 9.80326 5.45552 11.6164 5.45552ZM19.2243 14.1776C19.1022 14.181 18.9828 14.213 18.8764 14.2708C18.7699 14.3287 18.6796 14.4108 18.6133 14.5099L16.0214 18.264L14.3959 17.2122C14.3136 17.1535 14.2198 17.1115 14.1202 17.0889C14.0207 17.0662 13.9174 17.0633 13.8166 17.0803C13.7159 17.0974 13.6197 17.134 13.534 17.188C13.4483 17.242 13.3749 17.3122 13.3181 17.3944C13.2613 17.4766 13.2224 17.5691 13.2037 17.6663C13.185 17.7635 13.1869 17.8633 13.2092 17.9597C13.2316 18.0562 13.274 18.1472 13.3339 18.2274C13.3937 18.3076 13.4698 18.3751 13.5575 18.426L15.8168 19.8788C15.9831 19.9853 16.1863 20.0237 16.3818 19.9856C16.5774 19.9475 16.7493 19.836 16.8598 19.6756L19.8694 15.3145C19.9476 15.2036 19.9925 15.074 19.9991 14.94C20.0058 14.806 19.974 14.6728 19.9072 14.5551C19.8405 14.4375 19.7414 14.34 19.6209 14.2733C19.5003 14.2067 19.3631 14.1736 19.2243 14.1776Z"
                    fill="#6F757E"
                  />
                </svg>