<svg
                xmlns="http://www.w3.org/2000/svg"
                width="24"
                height="24"
                viewBox="0 0 24 24"
                fill="none"
              >
                <path
                  d="M16.9994 8.00342C19.1743 8.01542 20.3522 8.11241 21.1202 8.88038C21.9992 9.75934 21.9992 11.1733 21.9992 14.0012V15.0011C21.9992 17.83 21.9992 19.2439 21.1202 20.1229C20.2422 21.0009 18.8273 21.0009 15.9994 21.0009H7.99975C5.17187 21.0009 3.75693 21.0009 2.87896 20.1229C2 19.2429 2 17.83 2 15.0011V14.0012C2 11.1733 2 9.75934 2.87896 8.88038C3.64693 8.11241 4.82488 8.01542 6.99979 8.00342"
                  stroke="#0F1928"
                  stroke-width="1.5"
                  stroke-linecap="round"
                />
                <path
                  d="M12.0013 1V13.9995M12.0013 13.9995L9.00146 10.4996M12.0013 13.9995L15.0012 10.4996"
                  stroke="#0F1928"
                  stroke-width="1.5"
                  stroke-linecap="round"
                  stroke-linejoin="round"
                />
              </svg>