<svg
                  xmlns="http://www.w3.org/2000/svg"
                  width="34"
                  height="34"
                  viewBox="0 0 34 34"
                  fill="none"
                >
                  <path
                    d="M24.4062 7.71694C23.3333 6.52297 22.7421 4.98962 22.7426 3.40234H17.8931V22.3743C17.8557 23.401 17.411 24.3735 16.6529 25.0869C15.8947 25.8004 14.882 26.1992 13.8283 26.1993C11.5997 26.1993 9.74777 24.4245 9.74777 22.2213C9.74777 19.5897 12.353 17.616 15.0367 18.4269V13.5921C9.62222 12.8883 4.88257 16.9887 4.88257 22.2213C4.88257 27.3162 9.21417 30.9423 13.8126 30.9423C18.7406 30.9423 22.7426 27.0408 22.7426 22.2213V12.5976C24.7091 13.9744 27.07 14.7131 29.4911 14.709V9.98134C29.4911 9.98134 26.5406 10.119 24.4062 7.71694Z"
                    fill="#0F1928"
                  />
                </svg>