 <svg
                xmlns="http://www.w3.org/2000/svg"
                width="24"
                height="24"
                viewBox="0 0 24 24"
                fill="none"
              >
                <path
                  d="M1 4.025C1 3.22272 1.3187 2.4533 1.886 1.886C2.4533 1.3187 3.22272 1 4.025 1H17.775C18.5773 1 19.3467 1.3187 19.914 1.886C20.4813 2.4533 20.8 3.22272 20.8 4.025V10.9242C20.2857 10.5945 19.7312 10.3324 19.15 10.1443V4.025C19.15 3.266 18.534 2.65 17.775 2.65H4.025C3.266 2.65 2.65 3.266 2.65 4.025V17.775C2.65 18.534 3.266 19.15 4.025 19.15H10.1443C10.3346 19.7374 10.5975 20.2907 10.9242 20.8H4.025C3.22272 20.8 2.4533 20.4813 1.886 19.914C1.3187 19.3467 1 18.5773 1 17.775V4.025ZM23 16.95C23 15.3454 22.3626 13.8066 21.228 12.672C20.0934 11.5374 18.5546 10.9 16.95 10.9C15.3454 10.9 13.8066 11.5374 12.672 12.672C11.5374 13.8066 10.9 15.3454 10.9 16.95C10.9 18.5546 11.5374 20.0934 12.672 21.228C13.8066 22.3626 15.3454 23 16.95 23C18.5546 23 20.0934 22.3626 21.228 21.228C22.3626 20.0934 23 18.5546 23 16.95ZM17.5 17.5L17.5011 20.2533C17.5011 20.3992 17.4432 20.5391 17.34 20.6422C17.2369 20.7454 17.097 20.8033 16.9511 20.8033C16.8052 20.8033 16.6653 20.7454 16.5622 20.6422C16.459 20.5391 16.4011 20.3992 16.4011 20.2533V17.5H13.6456C13.4997 17.5 13.3598 17.4421 13.2567 17.3389C13.1535 17.2358 13.0956 17.0959 13.0956 16.95C13.0956 16.8041 13.1535 16.6642 13.2567 16.5611C13.3598 16.4579 13.4997 16.4 13.6456 16.4H16.4V13.65C16.4 13.5041 16.4579 13.3642 16.5611 13.2611C16.6642 13.1579 16.8041 13.1 16.95 13.1C17.0959 13.1 17.2358 13.1579 17.3389 13.2611C17.4421 13.3642 17.5 13.5041 17.5 13.65V16.4H20.2467C20.3926 16.4 20.5325 16.4579 20.6356 16.5611C20.7388 16.6642 20.7967 16.8041 20.7967 16.95C20.7967 17.0959 20.7388 17.2358 20.6356 17.3389C20.5325 17.4421 20.3926 17.5 20.2467 17.5H17.5Z"
                  fill="black"
                />
              </svg>