<svg xmlns="http://www.w3.org/2000/svg" width="25" height="25" viewBox="0 0 25 25" fill="none">
  <path d="M9.67796 18.966L7.74696 18.448L8.53396 15.509C7.35593 15.0745 6.26108 14.4414 5.29696 13.637L3.14396 15.791L1.72896 14.376L3.88296 12.223C2.66704 10.7668 1.85005 9.01977 1.51196 7.15301L3.47996 6.79401C4.23896 10.996 7.91496 14.184 12.336 14.184C16.756 14.184 20.433 10.996 21.192 6.79401L23.16 7.15201C22.8223 9.01902 22.0057 10.7664 20.79 12.223L22.943 14.376L21.528 15.791L19.375 13.637C18.4108 14.4414 17.316 15.0745 16.138 15.509L16.925 18.449L14.994 18.966L14.206 16.026C12.9683 16.2381 11.7036 16.2381 10.466 16.026L9.67796 18.966Z" fill="#0F1928"/>
</svg>