<svg xmlns="http://www.w3.org/2000/svg" width="121" height="113" viewBox="0 0 121 113" fill="none">
  <path d="M23.8588 16.0117C23.3484 12.3252 25.9306 8.98119 29.6263 8.54269L38.5228 7.48712C42.2185 7.04862 45.6283 9.68164 46.1387 13.3681L58.5685 103.143C59.0789 106.83 56.4967 110.174 52.801 110.612L43.9046 111.668C40.2088 112.106 36.7991 109.473 36.2886 105.787L23.8588 16.0117Z" fill="#FC456C"/>
  <path d="M63.1674 9.77338C62.657 6.08688 65.2392 2.74291 68.9349 2.30441L77.8313 1.24884C81.5271 0.810334 84.9369 3.44336 85.4473 7.12986L97.8771 96.9049C98.3875 100.591 95.8053 103.935 92.1096 104.374L83.2132 105.429C79.5174 105.868 76.1076 103.235 75.5972 99.5484L63.1674 9.77338Z" fill="#F2D000"/>
  <path d="M104.861 21.7556C108.547 21.2367 112.023 23.7933 112.627 27.4657L113.819 34.724C114.422 38.3964 111.924 41.7941 108.238 42.3129L10.5499 56.0653C6.86461 56.5841 3.388 54.0276 2.7847 50.3551L1.59235 43.0969C0.989057 39.4244 3.48754 36.0267 7.17287 35.5079L104.861 21.7556Z" fill="#00CBAE"/>
  <path d="M110.45 56.4977C114.136 55.9789 117.612 58.5355 118.215 62.2079L119.408 69.4662C120.011 73.1386 117.513 76.5363 113.827 77.0551L16.1388 90.8075C12.4535 91.3263 8.97686 88.7698 8.37357 85.0973L7.18122 77.8391C6.57792 74.1666 9.07641 70.7689 12.7617 70.2501L110.45 56.4977Z" fill="#8665FF"/>
</svg>